<svg width="120" height="26" viewBox="0 0 120 26" fill="none" xmlns="http://www.w3.org/2000/svg">
<g clip-path="url(#clip0_39_27403)">
<path d="M66.906 0.0576172H60.7416L60.1884 1.75442C60.1884 1.75442 62.3016 4.04762 63.3204 6.30722L63.7752 7.36802L67.8036 19.9992H59.7528L62.28 11.9016C60.084 11.6808 58.572 10.9692 57.4656 9.93242L52.566 24.9612H75.0888L66.906 0.0576172Z" fill="black"/>
<path d="M57.3479 1.9992C61.5707 3.7728 63.5819 7.212 64.5047 9.6228C64.4915 9.54 64.4723 9.4476 64.4351 9.3348C61.9595 1.5312 59.4239 0.3804 53.8127 0C55.4267 5.2128 56.3063 10.0356 62.8019 11.256C63.1739 11.31 63.4223 11.3244 63.5939 11.3028C63.9527 11.8368 64.0559 12.8832 64.0475 13.2072C64.3475 13.1844 64.6331 13.0344 64.8395 12.8376C63.3167 6.4032 59.3987 3.4524 57.3491 1.998" fill="#4C9C2E"/>
<path d="M8.9328 6.22557C7.5396 6.22557 6.1884 6.62157 5.2404 7.29357V0.111572H0V23.9856L0.0864 24.0348C1.6284 24.8772 4.8144 25.5372 7.3416 25.5372C13.1148 25.5372 16.1652 21.9096 16.1652 15.048C16.1652 9.44277 13.53 6.22557 8.9328 6.22557ZM7.5516 21.6756C6.642 21.6756 5.7588 21.4296 5.2392 21.2016V12.2556C5.2392 10.878 6.4356 10.1544 7.6236 10.1544C9.876 10.1544 10.9248 11.9244 10.9248 15.72C10.9248 19.7832 9.852 21.6744 7.5504 21.6744" fill="black"/>
<path d="M26.0628 6.22681C21.9156 6.22681 17.4828 8.77561 17.4828 15.9324C17.4828 22.1268 20.3412 25.5372 25.53 25.5372C30.7188 25.5372 34.1772 21.6696 34.1772 15.4356C34.1772 7.82521 29.766 6.22681 26.064 6.22681M25.848 10.1244C27.8856 10.1244 28.7964 11.9268 28.7964 15.9684C28.7964 19.7628 27.81 21.6072 25.7772 21.6072C23.1324 21.6072 22.794 18.2736 22.794 15.3696C22.794 13.4088 23.1936 10.1232 25.848 10.1232" fill="black"/>
<path d="M45.2581 6.22681C43.0705 6.22681 41.3077 7.03921 40.0213 8.63761L39.7057 6.75241H35.2885L35.6221 10.2408V25.008H40.8637V13.3536C40.8637 11.6328 42.114 10.3368 43.776 10.3368C45.438 10.3368 45.8053 11.5704 45.8053 13.5636V25.0092H51.0469V12.6132C51.0469 8.43361 49.0465 6.22801 45.2593 6.22801" fill="black"/>
<path d="M87.8604 6.88079C87.078 6.46079 86.0088 6.22559 84.8484 6.22559C83.0976 6.22559 81.5364 7.24559 80.6748 8.92439L80.28 6.75359H75.9672L76.3404 10.0296V25.0056H81.582V13.7112C81.648 11.9112 82.722 10.7928 84.3864 10.7928C85.2216 10.7928 86.04 11.0028 86.8224 11.4096L87.0132 11.5116L87.9636 6.93719L87.8592 6.87959L87.8604 6.88079Z" fill="black"/>
<path d="M101.089 19.86L100.924 19.9716C99.4464 20.976 98.0292 21.4644 96.5952 21.4644C93.6408 21.4644 92.9028 19.2192 92.7228 18.2832C99.1332 17.9772 102.38 15.7128 102.38 11.5512C102.38 8.21883 100.126 6.22803 96.3516 6.22803C90.1896 6.22803 87.384 11.4636 87.384 16.326C87.384 23.94 92.0496 25.5372 95.9628 25.5372C99.876 25.5372 102.511 23.5428 102.536 23.5188L102.628 23.442L101.089 19.8612V19.86ZM96.1032 10.014C97.1124 10.014 97.7436 10.614 97.7436 11.5836C97.7436 13.9068 94.5348 14.4072 92.4924 14.49C92.6412 12.3024 93.816 10.014 96.1032 10.014Z" fill="black"/>
<path d="M119.629 21.2736V7.58159L119.524 7.54199C116.7 6.50399 114.072 6.22559 112.963 6.22559C106.904 6.22559 103.43 10.0356 103.43 16.6764C103.43 23.97 107.248 25.5048 110.452 25.5048C112.516 25.5048 114.204 24.7008 115.229 23.2368L115.474 25.0092H120L119.629 21.2748V21.2736ZM111.69 21.6072C109.607 21.6072 108.634 19.9512 108.634 16.3932C108.634 11.2692 110.659 10.1916 112.357 10.1916C113.275 10.1916 114.02 10.3632 114.426 10.524V19.116C114.426 20.322 113.467 21.6072 111.69 21.6072Z" fill="black"/>
</g>
<defs>
<clipPath id="clip0_39_27403">
<rect width="120" height="25.5372" fill="white"/>
</clipPath>
</defs>
</svg>
